<svg id="Layer_2" data-name="Layer 2" xmlns="http://www.w3.org/2000/svg" viewBox="0 0 548.83 454.72">
  <defs>
    <style>
      .cls-1 {
        fill: none;
        stroke: #231f20;
        stroke-miterlimit: 10;
      }
    </style>
  </defs>
  <title>GD-floors-3</title>
  <path class="cls-1" d="M102,187l40.73,210.41h99.31c13.18,0,41.6,6.58,58.58,26.51s17.68,46.28,17.68,46.28v65h148s-.17-51.82-.17-64.82,8.84-36.74,23.57-52,39-21.31,55.11-21.31c10.4-27.73,104.69-315.43,104.69-315.43Z" transform="translate(-101.43 -80.92)"/>
  <polyline class="cls-1" points="116.94 280.95 118.92 280.95 118.92 316.43"/>
  <polyline class="cls-1" points="107.86 280.95 93.16 280.95 93.16 276"/>
  <polyline class="cls-1" points="93.16 266.92 93.16 161.08 11.24 161.08"/>
  <line class="cls-1" x1="96.53" y1="280.95" x2="96.53" y2="316.43"/>
  <line class="cls-1" x1="93.16" y1="280.95" x2="72.59" y2="280.95"/>
  <line class="cls-1" x1="63.37" y1="280.95" x2="34.45" y2="280.95"/>
  <line class="cls-1" x1="61.26" y1="280.95" x2="61.26" y2="276"/>
  <line class="cls-1" x1="61.26" y1="266.92" x2="61.26" y2="257.08"/>
  <line class="cls-1" x1="93.16" y1="258.78" x2="81.64" y2="258.78"/>
  <line class="cls-1" x1="72.59" y1="258.78" x2="61.26" y2="258.78"/>
  <polyline class="cls-1" points="61.26 248.12 61.26 236.45 25.83 236.45"/>
  <polyline class="cls-1" points="198.53 342.17 198.53 314.17 243.9 314.17 243.9 342.17"/>
  <polyline class="cls-1" points="243.9 352.16 243.9 355.32 207.51 355.32"/>
  <polyline class="cls-1" points="383.46 318.3 383.46 284.63 338.35 284.63 338.35 355.32 375.33 355.32"/>
  <line class="cls-1" x1="383.46" y1="328.17" x2="383.46" y2="342.17"/>
  <line class="cls-1" x1="413.02" y1="262.52" x2="461.38" y2="262.52"/>
  <polyline class="cls-1" points="383.46 162.52 141.31 162.52 141.31 260.93 383.46 260.93 383.46 162.52 494.84 162.52"/>
  <line class="cls-1" x1="141.31" y1="162.52" x2="93.16" y2="162.52"/>
  <line class="cls-1" x1="295.24" y1="162.52" x2="295.24" y2="49.32"/>
  <polyline class="cls-1" points="337.9 108.08 337.9 133.19 295.24 133.19"/>
  <line class="cls-1" x1="337.9" y1="98.74" x2="337.9" y2="89.41"/>
  <line class="cls-1" x1="337.9" y1="80.08" x2="337.9" y2="41.1"/>
  <polyline class="cls-1" points="422.35 134.3 384.57 134.3 384.57 162.52"/>
  <g>
    <polyline id="Room14" class="cls-1" points="129.89 260.93 106.71 260.93 106.71 238.64 141.31 238.64 141.31 260.93 139.41 260.93"/>
    <polyline id="Room13" class="cls-1" points="106.71 221.17 106.71 238.64 141.31 238.64 141.31 210.98 106.71 210.98 106.71 212.54"/>
    <polyline id="Room12" class="cls-1" points="258.68 298.85 290.9 298.85 290.9 316.63 258.68 316.63 258.68 308.3"/>
    <polyline id="Room11" class="cls-1" points="323.68 298.85 290.9 298.85 290.9 316.63 323.68 316.63 323.68 308.3"/>
    <polyline id="Room10" class="cls-1" points="323.68 346.52 323.68 316.63 290.9 316.63 290.9 357.63 323.68 357.63 323.68 355.41"/>
    <polyline id="Room9" class="cls-1" points="258.68 355.41 258.68 357.63 290.9 357.63 290.9 316.63 258.68 316.63 258.68 346.41"/>
    <polyline id="Room8" class="cls-1" points="323.68 360.3 323.68 357.63 258.68 357.63 258.68 405.19 323.68 405.19 323.68 369.41"/>
    <polyline id="Room7" class="cls-1" points="243.9 298.85 243.9 284.63 198.53 284.63 198.53 314.17 243.9 314.17 243.9 307.74"/>
    <polyline id="Room6" class="cls-1" points="106.71 185.34 106.71 182.97 141.31 182.97 141.31 210.98 106.71 210.98 106.71 192.89"/>
    <polyline id="Room5" class="cls-1" points="169.6 138.72 187.67 138.72 187.67 162.52 158.32 162.52 158.32 138.72 159.91 138.72"/>
    <polyline id="Room4" class="cls-1" points="149.06 138.72 141.31 138.72 141.31 162.52 158.32 162.52 158.32 138.72 157.16 138.72"/>
    <polyline id="Room3" class="cls-1" points="131.44 138.72 124.03 138.72 124.03 162.52 141.31 162.52 141.31 138.72 140.07 138.72"/>
    <polyline id="Room2" class="cls-1" points="394.13 94.08 384.57 94.08 384.57 119.19 403.46 119.19 403.46 94.08 401.9 94.08"/>
    <polyline id="Room1" class="cls-1" points="413.46 94.08 403.46 94.08 403.46 119.19 422.35 119.19 422.35 94.08 420.35 94.08"/>
  </g>
  <polyline class="cls-1" points="422.35 94.08 465.9 94.08 465.9 134.3 504.15 134.3"/>
</svg>
